<svg xmlns="http://www.w3.org/2000/svg" xmlns:xlink="http://www.w3.org/1999/xlink" version="1.1" x="0px" y="0px" viewBox="0 0 48 60" enable-background="new 0 0 48 48" xml:space="preserve"><g><path fill="#fff" d="M46.9,37.4h-4V24.6l4.6-4.6c0.6-0.6,0.6-1.6,0-2.2L43,13.1V5.6C43,2.5,40.5,0,37.4,0H5.5C2.4,0-0.1,2.5-0.1,5.6v10   c0,0.6,0.5,1,1,1h8.2v25.8c0,3.1,2.5,5.6,5.6,5.6h27.7c3.1,0,5.6-2.5,5.6-5.6v-4C47.9,37.8,47.5,37.4,46.9,37.4z M41,37.4H19.3   c-0.5,0-1,0.5-1,1v4c0,2-1.6,3.6-3.6,3.6c-2,0-3.6-1.6-3.6-3.6V5.6c0-1.4-0.5-2.6-1.3-3.6h27.6c2,0,3.6,1.6,3.6,3.6v5.5l-1.7-1.7   c-0.4-0.4-0.9-0.5-1.4-0.4C37.9,8.8,38,8.6,38,8.4c0-0.6-0.4-1-1-1H15c-0.6,0-1,0.4-1,1c0,0.6,0.4,1,1,1h22c0,0,0,0,0,0l-3,3H15   c-0.6,0-1,0.4-1,1c0,0.6,0.4,1,1,1h17l-3,3H15c-0.6,0-1,0.4-1,1c0,0.6,0.4,1,1,1h12l-3,3h-9c-0.6,0-1,0.4-1,1c0,0.6,0.4,1,1,1h7   l-0.4,0.4c-0.6,0.6-0.6,1.6,0,2.2l0.4,0.4h-7c-0.6,0-1,0.4-1,1c0,0.6,0.4,1,1,1h9l3,3H15c-0.6,0-1,0.4-1,1c0,0.6,0.4,1,1,1h14l1,1   c0.6,0.6,1.6,0.6,2.2,0l8.7-8.7V37.4z M32.9,32.4c-1-1-2.7-1-3.7,0l-4.7-4.7c1-1,1-2.7,0-3.7l11.7-11.7c1,1,2.7,1,3.7,0l4.7,4.7   c-1,1-1,2.7,0,3.7L32.9,32.4z"/><path fill="#fff" d="M35.7,22.2c-0.1,0-0.3,0.1-0.6,0.2l0.9,0.9c0.1-0.2,0.2-0.3,0.2-0.5c0-0.2,0-0.3-0.1-0.4C36,22.3,35.8,22.2,35.7,22.2z"/><path fill="#fff" d="M33,21.7c0,0.2,0,0.3,0.2,0.4c0.1,0.1,0.2,0.2,0.4,0.2c0.1,0,0.3-0.1,0.6-0.2l-0.9-0.9C33.1,21.3,33,21.5,33,21.7z"/><path fill="#fff" d="M31.8,19.6c-1.5,1.5-1.5,4,0,5.6s4,1.5,5.6,0c1.5-1.5,1.5-4,0-5.6C35.9,18,33.4,18,31.8,19.6z M36.9,24.2l-0.3,0.3   l-0.4-0.4c-0.5,0.4-1.1,0.6-1.8,0.7L34.4,24c0.5,0,0.9-0.2,1.3-0.4l-1-1c-0.5,0.3-0.9,0.4-1.2,0.5c-0.3,0-0.6-0.1-0.9-0.4   c-0.3-0.3-0.4-0.6-0.4-1c0-0.4,0.2-0.7,0.5-1.1l-0.2-0.2l0.3-0.3l0.3,0.3c0.4-0.3,0.9-0.6,1.4-0.7l0.1,0.8c-0.4,0.1-0.7,0.2-1,0.4   l0.9,0.9l0,0c0.5-0.3,0.9-0.4,1.2-0.5c0.3,0,0.6,0.1,0.9,0.4c0.3,0.3,0.4,0.6,0.4,1c0,0.4-0.2,0.8-0.5,1.1L36.9,24.2z"/><circle fill="#fff" cx="39.8" cy="17.2" r="2.1"/><circle fill="#fff" cx="29.4" cy="27.5" r="2.1"/></g><text x="0" y="63" fill="#000000" font-size="5px" font-weight="bold" font-family="'Helvetica Neue', Helvetica, Arial-Unicode, Arial, Sans-serif"> </text><text x="0" y="68" fill="#000000" font-size="5px" font-weight="bold" font-family="'Helvetica Neue', Helvetica, Arial-Unicode, Arial, Sans-serif"> </text></svg>