<svg xmlns:dc="http://purl.org/dc/elements/1.1/" xmlns:cc="http://creativecommons.org/ns#" xmlns:rdf="http://www.w3.org/1999/02/22-rdf-syntax-ns#" xmlns:svg="http://www.w3.org/2000/svg" xmlns="http://www.w3.org/2000/svg" xmlns:sodipodi="http://sodipodi.sourceforge.net/DTD/sodipodi-0.dtd" xmlns:inkscape="http://www.inkscape.org/namespaces/inkscape" version="1.1" x="0px" y="0px" viewBox="0 0 100 125"><g transform="translate(0,-952.36205)"><path style="text-indent:0;text-transform:none;direction:ltr;block-progression:tb;baseline-shift:baseline;color:#000000;enable-background:accumulate;" d="m 49.986078,961.5359 c -13.8118,0 -25.0312,11.2517 -25.0312,25.0625 0,2.8744 1.2578,6.2043 3.0937,10.1563 1.836,3.9519 4.3056,8.3927 6.9063,12.8436 5.2013,8.9021 11.0204,17.8698 13.2812,22.125 a 2.000005,2.000005 0 0 0 3.5313,0 c 2.2666,-4.257 8.0785,-13.2228 13.2812,-22.125 2.6014,-4.451 5.0389,-8.8916 6.875,-12.8436 1.8362,-3.952 3.125,-7.2819 3.125,-10.1563 0,-13.8108 -11.2415,-25.0625 -25.0625,-25.0625 z m 0,4 c 11.659,0 21.0625,9.4133 21.0625,21.0625 0,1.4706 -1.0061,4.7155 -2.75,8.4688 -1.7438,3.7533 -4.1501,8.1361 -6.7187,12.5312 -4.1518,7.1039 -8.6908,14.1891 -11.5938,19.1249 -2.9,-4.9366 -7.4118,-12.0212 -11.5625,-19.1249 -2.568,-4.3952 -4.975,-8.7779 -6.7187,-12.5312 -1.7437,-3.7534 -2.75,-6.9982 -2.75,-8.4688 0,-11.6492 9.3831,-21.0625 21.0312,-21.0625 z" fill="#fff" fill-opacity="1" fill-rule="evenodd" stroke="none" marker="none" visibility="visible" display="inline" overflow="visible"/><path style="text-indent:0;text-transform:none;direction:ltr;block-progression:tb;baseline-shift:baseline;color:#000000;enable-background:accumulate;" d="m 49.993378,973.8078 c 6.6908,0 12.07,5.3713 12.07,12.0603 0,6.689 -5.3792,12.0603 -12.07,12.0603 -6.6793,0 -12.0603,-5.3713 -12.0603,-12.0603 0,-6.689 5.381,-12.0603 12.0603,-12.0603 z" fill="#fff" fill-opacity="1" fill-rule="evenodd" stroke="none" marker="none" visibility="visible" display="inline" overflow="visible"/><path style="text-indent:0;text-transform:none;direction:ltr;block-progression:tb;baseline-shift:baseline;fill=#fff;color:#000000;enable-background:accumulate;" d="m 25.578078,1022.0005 a 2.000005,2.000005 0 0 0 -1.5,0.6563 l -15.5624999,17.1876 a 2.000005,2.000005 0 0 0 1.4688,3.3437 l 39.8436999,0 12,0 0.1875,0 27.9688,0 a 2.000005,2.000005 0 0 0 1.5,-3.3437 l -15.5625,-17.1876 a 2.000005,2.000005 0 0 0 -1.5,-0.6563 l -13.0313,0 a 2.000005,2.000005 0 1 0 0,4 l 12.1563,0 11.9375,13.1876 -23.5,0 -0.1563,0 -12.0312,0 -35.2813,0 11.9375,-13.1876 12.125,0 a 2.000005,2.000005 0 1 0 0,-4 l -13,0 z" fill="#fff" fill-opacity="1" fill-rule="evenodd" stroke="none" marker="none" visibility="visible" display="inline" overflow="visible"/></g><text x="0" y="115" fill="#000000" font-size="5px" font-weight="bold" font-family="'Helvetica Neue', Helvetica, Arial-Unicode, Arial, Sans-serif"></text><text x="0" y="120" fill="#000000" font-size="5px" font-weight="bold" font-family="'Helvetica Neue', Helvetica, Arial-Unicode, Arial, Sans-serif"></text></svg>