<svg xmlns="http://www.w3.org/2000/svg" xmlns:xlink="http://www.w3.org/1999/xlink" version="1.1" x="0px" y="0px" viewBox="0 0 96 120" enable-background="new 0 0 96 96" xml:space="preserve"><g><path fill="#fff" d="M48,38.558c7.047,0,12.779-5.732,12.779-12.779C60.779,18.732,55.047,13,48,13c-7.046,0-12.779,5.733-12.779,12.779   C35.221,32.825,40.954,38.558,48,38.558z"/><polygon fill="#fff" points="41.903,42.15 48,49.91 54.098,42.15  "/><polygon fill="#fff" points="45.434,48.262 45.434,72.912 48,76.66 50.566,72.912 50.566,48.262 48,51.527  "/><path fill="#fff" d="M55.367,42.153l-3.801,4.836v26.231L48,78.43l-3.565-5.209V46.99l-3.801-4.837c-5.329,0.128-9.624,4.503-9.624,9.861V83   h33.98V52.014C64.99,46.655,60.695,42.281,55.367,42.153z"/></g><text x="0" y="111" fill="#000000" font-size="5px" font-weight="bold" font-family="'Helvetica Neue', Helvetica, Arial-Unicode, Arial, Sans-serif"></text><text x="0" y="116" fill="#000000" font-size="5px" font-weight="bold" font-family="'Helvetica Neue', Helvetica, Arial-Unicode, Arial, Sans-serif"></text></svg>