<svg xmlns="http://www.w3.org/2000/svg" data-name="Layer 1" viewBox="0 0 64 80" x="0px" y="0px"><title>profit-gain-return-goal-benefit-advantage</title><polygon  points="5 10 7 10 7 7 10 7 10 5 7 5 7 2 5 2 5 5 2 5 2 7 5 7 5 10"/><polygon points="15 10 17 10 17 7 20 7 20 5 17 5 17 2 15 2 15 5 12 5 12 7 15 7 15 10"/><rect fill="#fff" x="6" y="49" width="8" height="13"/><rect fill="#fff" x="20" y="44" width="8" height="18"/><rect fill="#fff" x="34" y="38" width="8" height="24"/><rect fill="#fff" x="48" y="30" width="8" height="32"/><path fill="#fff" d="M51,20a7,7,0,1,0-7-7A7,7,0,0,0,51,20Zm-.29883-6.04736c-.90332-.28125-2.415-.75293-2.415-2.667a2.71387,2.71387,0,1,1,5.42774,0h-2a.71387.71387,0,1,0-1.42774,0c0,.36524.03418.45362,1.01075.75782.90429.28222,2.417.7539,2.417,2.6709a2.71387,2.71387,0,1,1-5.42774,0h2a.71387.71387,0,1,0,1.42774,0C51.71387,14.34668,51.67969,14.25781,50.70117,13.95264Z"/><path fill="#fff" d="M48.22852,21.56494a8.961,8.961,0,0,1-2.50879-1.27588L44.5459,21.9082a10.95861,10.95861,0,0,0,3.06738,1.56006Z"/><path d="M50.97363,4.00049l-.00586-2a10.97877,10.97877,0,0,0-3.39648.54492l.623,1.90039A8.9825,8.9825,0,0,1,50.97363,4.00049Z"/><path d="M59.5625,15.78125l1.90234.61621A10.98738,10.98738,0,0,0,62,13v-.03955L60,13A9.0162,9.0162,0,0,1,59.5625,15.78125Z"/><path fill="#fff" d="M53.78809,21.55957A9.0086,9.0086,0,0,1,51.00781,22l.002,2a11.01744,11.01744,0,0,0,3.39746-.53809Z"/><path fill="#fff" d="M43.72559,18.30078a8.9346,8.9346,0,0,1-1.28321-2.5039L40.542,16.418a10.94174,10.94174,0,0,0,1.56836,3.0625Z"/><path fill="#fff" d="M57.4375,4.0791a10.93248,10.93248,0,0,0-3.07031-1.5542l-.61133,1.9043a8.93938,8.93938,0,0,1,2.50976,1.271Z"/><path fill="#fff" d="M45.69238,5.73047,44.51074,4.11719a11.04692,11.04692,0,0,0-2.4248,2.43652l1.61914,1.17383A9.04968,9.04968,0,0,1,45.69238,5.73047Z"/><path fill="#fff" d="M42.43164,10.23633,40.52734,9.623A11.01485,11.01485,0,0,0,40,13v.01953L42,13A9.00334,9.00334,0,0,1,42.43164,10.23633Z"/><path fill="#fff" d="M61.45215,9.5625A10.94128,10.94128,0,0,0,59.877,6.50244L58.26367,7.68506a8.92286,8.92286,0,0,1,1.28809,2.50146Z"/><path d="M56.294,20.27979,57.47168,21.896a11.02009,11.02009,0,0,0,2.42969-2.43262L58.28418,18.2876A9.05143,9.05143,0,0,1,56.294,20.27979Z"/><path d="M5,39a3,3,0,0,0,6,0c0-.08508-.01807-.1651-.025-.24835l8.8767-2.663a2.9738,2.9738,0,0,0,5.10059-2.56195l7.27124-5.65539A4.21156,4.21156,0,1,0,31.186,26.14355l-7.2146,5.61139A2.98657,2.98657,0,0,0,19,34c0,.08508.01807.1651.025.24835l-8.8767,2.663A2.99634,2.99634,0,0,0,5,39Z"/><text x="0" y="79" fill="#000000" font-size="5px" font-weight="bold" font-family="'Helvetica Neue', Helvetica, Arial-Unicode, Arial, Sans-serif"></text><text x="0" y="84" fill="#000000" font-size="5px" font-weight="bold" font-family="'Helvetica Neue', Helvetica, Arial-Unicode, Arial, Sans-serif"> </text></svg>