<svg xmlns="http://www.w3.org/2000/svg" xmlns:xlink="http://www.w3.org/1999/xlink" version="1.1" x="0px" y="0px" viewBox="0 0 100 125" enable-background="new 0 0 100 100" xml:space="preserve"><g><path fill="#fff"  d="M68.355,20.611v8.067c-0.464,0.232-0.813,0.696-0.813,1.219c0,0.754,0.58,1.335,1.335,1.335   c0.754,0,1.334-0.581,1.334-1.335c0-0.464-0.29-0.929-0.696-1.161v-8.705L74.101,18L50.307,5L26.745,18.058l23.562,10.505   L68.355,20.611z"/><path fill="#fff" d="M67.833,31.87v4.933c1.277-0.755,2.379,0.464,2.379,0.464l-0.231-5.804   C69.168,32.218,67.833,31.87,67.833,31.87z"/><path fill="#fff" d="M67.575,64.487c-0.103,0-0.103-0.103-0.206-0.103c-0.309-0.104-0.618-0.31-0.928-0.413   c-2.783-1.134-5.566-1.958-8.35-2.37c-1.236,1.03-2.165,1.546-2.165,1.546c-2.576,1.237-4.741,1.649-6.7,1.649   c-4.536,0-7.113-2.474-7.319-2.68c-0.103-0.104-0.207-0.207-0.31-0.31c-3.401,0.618-6.185,1.443-7.834,1.958v-0.103   c0,0-0.722,0.206-1.752,0.722c-3.093,1.442-9.277,5.154-11.339,12.473V87.99c0,0,24.225,15.771,58.654,0V77.063   C79.224,77.063,77.987,69.229,67.575,64.487z"/><path fill="#fff" d="M31.806,41.803c0.002,0.028,0.034,0.893,0.515,1.759c0.413,0.928,1.443,1.855,2.989,2.268   c0.103,0.618,0.516,2.062,1.237,3.917c0.928,2.371,2.577,5.155,5.257,7.216c0.206,0.206,2.783,2.68,7.319,2.68   c1.958,0,4.123-0.412,6.7-1.649c0,0,1.649-0.824,3.505-2.783c1.752-1.958,3.711-4.948,4.536-9.277c0.412,0,1.03-0.206,1.752-0.619   c0.928-0.619,1.855-1.649,2.165-3.608c0,0,0-1.031-0.413-2.165c-0.206-0.516-0.515-1.134-1.03-1.546   c-0.412-0.309-0.928-0.619-1.547-0.722h0.104l0.824-5.463c0.006-0.078,0.01-0.154,0.014-0.23c0.007,0,0.011,0,0.011,0v-0.177   c0.023-0.497,0.023-0.971,0.005-1.424h-0.005v-6.813l-15.322,6.732L32.838,22.12v7.299l-0.014,0.56h-0.001c0,0.016,0,0.033,0,0.049   l0,0.022h0c-0.042,3.798,1.11,7.11,1.25,7.533c-0.206,0.103-0.515,0.309-0.825,0.618C32.631,38.922,31.808,40.054,31.806,41.803z"/></g><text x="0" y="115" fill="#000000" font-size="5px" font-weight="bold" font-family="'Helvetica Neue', Helvetica, Arial-Unicode, Arial, Sans-serif"></text><text x="0" y="120" fill="#000000" font-size="5px" font-weight="bold" font-family="'Helvetica Neue', Helvetica, Arial-Unicode, Arial, Sans-serif"> </text></svg>