<svg xmlns="http://www.w3.org/2000/svg" xmlns:xlink="http://www.w3.org/1999/xlink" version="1.0" x="0px" y="0px" viewBox="0 0 100 125" enable-background="new 0 0 100 100" xml:space="preserve"><path fill="#fff" d="M86.7521515,75.8615341L81.7596283,61.354908c-0.7302399-2.1220398-2.360878-3.8128052-4.4549789-4.6196594  l-18.35149-7.0700493l-0.0745277-7.5859489l3.8826675-9.4154434l1.0974464-0.3689232  c1.0798759-0.3629036,1.8483315-1.3229313,1.9659691-2.4561005l0.453949-4.3717613  c0.1264191-1.2174759-0.5230484-2.3837891-1.6246567-2.9173889l-0.5060272-0.2451344l0.2818985-3.7111568  c0.2252121-2.9638453-0.6601486-5.9054136-2.4837608-8.2526197L59.837616,7.6269922C57.5695572,4.707746,54.0800819,3,50.3833237,3  h-0.7664642c-3.6967583,0-7.1862335,1.707746-9.4543839,4.6269922l-0.1378288,0.177444l-1.9706726,2.5363765  c-1.8236122,2.3471155-2.7089767,5.2886839-2.4837646,8.2524376l0.2818108,3.7112484l-0.5059357,0.2451344  c-1.1015205,0.5335999-1.7510757,1.699913-1.6246605,2.9173431l0.4539566,4.3718071  c0.11763,1.1331692,0.8860855,2.0932426,1.9659653,2.4561882l1.0974426,0.3688354l3.8826714,9.415535l-0.0745277,7.5858574  l-18.3514881,7.0700493c-2.0941029,0.8068542-3.724741,2.4976196-4.4549828,4.6196594L13.247941,75.8615341  c-0.2821722,0.8197556-0.426156,1.6806259-0.426156,2.5475159v2.6270218h8.3958778v-3.9363708V66.5300827  c0-3.5559006,2.8827534-6.4385185,6.4385166-6.4385185h44.7570038c3.5559464,0,6.4385147,2.882618,6.4385147,6.4385185v10.5696182  v3.9363708h8.3265152v-2.6270676C87.178215,77.54216,87.0342331,76.6812897,86.7521515,75.8615341z"/><path fill="#fff" d="M73.568222,67.7237396c0-1.3519058-1.095993-2.4479065-2.4478073-2.4479065H28.8797684  c-1.3519974,0-2.4479027,1.0960007-2.4479027,2.4479065v24.7175598h-3.5506935v0.9362564  c0,1.6411896,1.3305359,2.9716797,2.9716797,2.9716797h0.5790138H73.568222h0.5790176  c1.6411438,0,2.9715881-1.3304901,2.9715881-2.9716797v-0.9362564H73.568222V67.7237396z"/><text x="0" y="115" fill="#000000" font-size="5px" font-weight="bold" font-family="'Helvetica Neue', Helvetica, Arial-Unicode, Arial, Sans-serif"></text><text x="0" y="120" fill="#000000" font-size="5px" font-weight="bold" font-family="'Helvetica Neue', Helvetica, Arial-Unicode, Arial, Sans-serif"></text></svg>