<svg xmlns="http://www.w3.org/2000/svg" xmlns:xlink="http://www.w3.org/1999/xlink" xml:space="preserve" style="shape-rendering:geometricPrecision;text-rendering:geometricPrecision;image-rendering:optimizeQuality;" viewBox="0 0 6827 8533.75" x="0px" y="0px" fill-rule="evenodd" clip-rule="evenodd"><defs><style type="text/css">
   
    .fil1 {fill:none}
    .fil0 {fill:white;fill-rule:nonzero}
   
  </style></defs><g><path class="fil0" d="M3891 4779c1,44 -33,81 -77,82 -44,1 -81,-33 -82,-77 -5,-137 -116,-175 -145,-182l-973 0c-8,0 -17,-1 -24,-4 -5,-1 -12,-3 -20,-6 -1,0 -1,0 -2,-1 -164,-52 -460,-154 -740,-250 -304,-104 -589,-202 -649,-219 -90,-25 -148,97 -148,97l0 0c-1,1 -1,3 -2,4 -42,75 13,150 32,174l1893 1052c1,1 3,1 4,2 116,67 225,14 246,3 6,-4 12,-7 20,-10l1405 -464c9,-3 18,-5 28,-5l313 0c44,0 80,36 80,80 0,44 -36,80 -80,80l-301 0 -1390 459c-43,23 -218,101 -401,-5l-2 -1 -1905 -1059c-7,-4 -13,-9 -18,-14l0 0c0,-1 -170,-172 -66,-366l0 0c0,-1 114,-243 334,-182 71,20 355,117 658,221 166,57 337,116 479,164 -5,-26 -8,-55 -8,-86 3,-290 291,-323 291,-323 3,0 7,-1 10,-1l0 0 732 0c97,-44 596,-266 865,-314 1,0 2,0 3,0 120,-21 269,-28 404,-28 136,0 255,5 318,9 44,3 78,40 75,84 -3,44 -40,78 -84,75 -63,-4 -180,-10 -308,-9 -126,0 -265,7 -377,26 -1,0 -2,0 -3,1 -263,47 -775,278 -837,306 -12,7 -25,10 -39,10l-745 0c-28,5 -145,34 -147,166 0,31 4,56 11,77 8,22 19,40 32,53 21,22 44,34 59,39l3 1c2,0 3,1 4,2l2 1 973 0 0 0c5,0 10,0 15,1 1,0 271,49 281,336z"/><path class="fil0" d="M5794 3409l-697 0c-5,0 -10,2 -13,5l0 0 0 0c-4,4 -6,8 -6,13l0 1881c0,5 2,10 6,13 1,1 1,1 2,2 3,2 7,4 12,4l697 0c5,0 10,-2 13,-5l0 0 0 0c3,-3 5,-8 5,-13l0 -1881c0,-5 -2,-10 -5,-13l0 0 0 0c-3,-3 -8,-5 -13,-5zm-697 -160l697 0c49,0 93,20 126,52l0 0 0 0 0 0 0 0c32,33 53,77 53,126l0 1881c0,49 -20,93 -52,126l0 0 0 0 0 0 0 0c-33,32 -77,53 -126,53l-697 0c-46,0 -89,-18 -121,-47 -2,-2 -4,-4 -6,-5 -32,-32 -53,-77 -53,-127l0 -1881c0,-49 20,-94 53,-127l0 0c33,-33 77,-53 126,-53z"/><path class="fil0" d="M2537 1182c330,0 629,134 845,350 216,216 350,515 350,845 0,330 -134,629 -350,845 -216,216 -515,350 -845,350 -330,0 -629,-134 -845,-350 -216,-216 -350,-515 -350,-845 0,-330 134,-629 350,-845 216,-216 515,-350 845,-350zm732 463c-187,-187 -446,-303 -732,-303 -286,0 -545,116 -732,303 -187,187 -303,446 -303,732 0,286 116,545 303,732 187,187 446,303 732,303 286,0 545,-116 732,-303 187,-187 303,-446 303,-732 0,-286 -116,-545 -303,-732z"/><path class="fil0" d="M2870 2566c0,44 -8,83 -24,119 -15,35 -38,66 -66,91 -28,26 -63,46 -103,61 -40,15 -85,25 -134,29l-16 164c-1,4 -2,8 -3,11 -2,3 -5,6 -10,8 -5,2 -11,4 -20,5 -8,1 -19,2 -32,2 -16,0 -30,-1 -39,-2 -10,-2 -18,-4 -23,-7 -5,-3 -9,-7 -11,-11 -2,-5 -2,-10 -1,-15l16 -155c-22,-3 -43,-7 -62,-12 -19,-5 -37,-10 -53,-16 -16,-6 -30,-12 -41,-18 -11,-6 -20,-12 -26,-18 -6,-6 -10,-15 -13,-26 -3,-11 -4,-28 -4,-51 0,-17 1,-32 2,-43 1,-11 3,-20 5,-26 3,-6 6,-10 10,-13 4,-2 8,-3 13,-3 7,0 16,4 29,11 13,8 29,16 49,25 20,9 44,17 72,25 28,8 62,11 100,11 60,0 104,-11 133,-33 29,-22 44,-52 44,-89 0,-24 -6,-45 -19,-60 -13,-16 -29,-30 -50,-42 -21,-12 -44,-23 -71,-32 -26,-9 -53,-19 -81,-30 -27,-11 -54,-23 -81,-37 -26,-14 -50,-32 -71,-53 -21,-21 -38,-46 -50,-76 -13,-30 -19,-66 -19,-108 0,-38 7,-73 19,-104 13,-31 31,-59 55,-82 24,-24 53,-43 88,-57 35,-15 75,-25 119,-30l15 -154c1,-4 2,-8 3,-10 2,-3 5,-5 10,-8 5,-2 11,-4 20,-5 8,-1 19,-2 32,-2 16,0 29,1 39,2 10,2 19,4 24,7 6,3 9,7 11,11 2,5 2,10 2,15l-15 145c14,2 29,5 45,8 16,4 31,8 44,13 14,5 26,10 38,15 11,5 19,10 23,15 4,4 8,9 10,13 2,4 4,10 5,16 1,6 2,14 3,23 1,9 1,19 1,31 0,16 0,29 -1,39 -1,10 -2,18 -4,23 -2,5 -4,9 -7,11 -3,2 -5,3 -9,3 -7,0 -16,-3 -29,-10 -13,-7 -28,-14 -47,-21 -19,-8 -40,-15 -64,-21 -24,-7 -51,-10 -80,-10 -26,0 -49,3 -68,8 -19,5 -34,12 -46,22 -12,9 -20,20 -26,33 -5,13 -8,27 -8,42 0,24 6,44 19,60 13,16 30,30 51,42 21,12 45,22 72,32 27,10 54,20 82,31 28,11 55,23 82,37 27,14 51,31 72,52 21,21 38,46 51,75 13,29 19,64 19,106z"/></g><rect class="fil1" width="6827" height="6827"/><text x="0" y="6842" fill="#000000" font-size="5px" font-weight="bold" font-family="'Helvetica Neue', Helvetica, Arial-Unicode, Arial, Sans-serif"></text><text x="0" y="6847" fill="#000000" font-size="5px" font-weight="bold" font-family="'Helvetica Neue', Helvetica, Arial-Unicode, Arial, Sans-serif"></text></svg>