<svg xmlns="http://www.w3.org/2000/svg" viewBox="0 0 32 40" enable-background="new 0 0 32 32" x="0px" y="0px"><g><path fill="#fff" d="M16 32c-9.028 0-14-3.906-14-11 0-5.47 5.591-10.017 8.931-12.733l.324-.264c.347-.283.55-.667.571-1.082.021-.403-.132-.795-.43-1.11l-3.73-2.994c-.53-.425-.728-1.116-.502-1.758.225-.643.812-1.059 1.493-1.059h15.156c.721 0 1.335.466 1.527 1.161.191.693-.094 1.408-.711 1.778-1.891 1.136-3.271 2.118-3.995 2.841-.319.319-.483.724-.462 1.14.021.415.225.799.572 1.083l.324.264c3.341 2.716 8.932 7.263 8.932 12.733 0 7.094-4.972 11-14 11zm-6.156-30l2.852 2.29.081.073c.726.726 1.097 1.67 1.046 2.66-.05.987-.514 1.886-1.305 2.53l-.326.265c-3.063 2.493-8.192 6.664-8.192 11.182 0 7.438 6.526 9 12 9 5.475 0 12-1.562 12-9 0-4.518-5.129-8.689-8.193-11.182l-.325-.265c-.792-.646-1.256-1.545-1.307-2.532-.05-.988.321-1.932 1.046-2.656.665-.665 1.715-1.458 3.128-2.365h-12.505zM16 26c-.552 0-1-.447-1-1v-10c0-.552.448-1 1-1s1 .448 1 1v10c0 .553-.448 1-1 1zM17.917 25h-4.917c-.552 0-1-.447-1-1s.448-1 1-1h4.917c.597 0 1.083-.448 1.083-1s-.486-1-1.083-1h-3.833c-1.701 0-3.084-1.346-3.084-3s1.383-3 3.083-3h4.917c.553 0 1 .448 1 1s-.447 1-1 1h-4.917c-.597 0-1.083.448-1.083 1s.486 1 1.083 1h3.917l.106.006c1.613.096 2.894 1.401 2.894 2.994 0 1.654-1.383 3-3.083 3zM21 8h-10c-.552 0-1-.448-1-1s.448-1 1-1h10c.553 0 1 .448 1 1s-.447 1-1 1z"/></g><text x="0" y="47" fill="#000000" font-size="5px" font-weight="bold" font-family="'Helvetica Neue', Helvetica, Arial-Unicode, Arial, Sans-serif"></text><text x="0" y="52" fill="#000000" font-size="5px" font-weight="bold" font-family="'Helvetica Neue', Helvetica, Arial-Unicode, Arial, Sans-serif"></text></svg>