<svg xmlns="http://www.w3.org/2000/svg" xmlns:xlink="http://www.w3.org/1999/xlink" version="1.1" x="0px" y="0px" viewBox="20 0 60 125" style="enable-background:new 0 0 100 100;" xml:space="preserve"><path fill="#fff" d="M31,37.3c0-3.6,2.9-6.6,6.6-6.6s6.6,2.9,6.6,6.6s-2.9,6.6-6.6,6.6S31,40.9,31,37.3z M57.8,45.6c0.8-0.2,1.3-1.1,1-1.9  c-0.2-0.8-1.1-1.3-1.9-1l-15.6,4.5H30.5c0,0,0,0,0,0c-0.5,0-1,0.2-1.3,0.7l-9,13.7c-0.5,0.7-0.3,1.6,0.4,2.1  c0.3,0.2,0.5,0.2,0.8,0.2c0.5,0,1-0.2,1.3-0.7l6.3-9.5v13.1c0,0.8,0.7,1.5,1.5,1.5h11.1c0.8,0,1.5-0.7,1.5-1.5v-17L57.8,45.6z   M78.5,31.8H51.2c-0.8,0-1.5,0.7-1.5,1.5v8.4l6.5-1.9c0.4-0.1,0.8-0.2,1.2-0.2c2,0,3.8,1.3,4.3,3.3c0.7,2.4-0.7,4.9-3.1,5.6l-9,2.6  v4.3c0,0.8,0.7,1.5,1.5,1.5h12.2v2.9l-5.9,7c-0.5,0.6-0.4,1.6,0.2,2.1c0.3,0.2,0.6,0.4,1,0.4c0.4,0,0.9-0.2,1.2-0.5l3.6-4.3v3  c0,0.8,0.7,1.5,1.5,1.5s1.5-0.7,1.5-1.5v-3l3.6,4.3c0.3,0.4,0.7,0.5,1.2,0.5c0.3,0,0.7-0.1,1-0.4c0.6-0.5,0.7-1.5,0.2-2.1l-5.9-7  v-2.9h12.2c0.8,0,1.5-0.7,1.5-1.5V33.3C80,32.5,79.3,31.8,78.5,31.8z"/><text x="0" y="115" fill="#000000" font-size="5px" font-weight="bold" font-family="'Helvetica Neue', Helvetica, Arial-Unicode, Arial, Sans-serif"></text><text x="0" y="120" fill="#000000" font-size="5px" font-weight="bold" font-family="'Helvetica Neue', Helvetica, Arial-Unicode, Arial, Sans-serif"></text></svg>